<?xml version="1.0" encoding="utf-8"?>
<!-- Generator: Adobe Illustrator 23.0.5, SVG Export Plug-In . SVG Version: 6.00 Build 0)  -->
<svg version="1.1" id="Capa_1" xmlns="http://www.w3.org/2000/svg" xmlns:xlink="http://www.w3.org/1999/xlink" x="0px" y="0px"
	 viewBox="0 0 169.1 43.7" style="enable-background:new 0 0 169.1 43.7;" xml:space="preserve">
<style type="text/css">
	.st0{fill:none;}
	.st1{fill:#F393B5;}
	.st2{opacity:0.9;fill:#F393B5;enable-background:new    ;}
	.st3{opacity:0.85;fill:#F393B5;enable-background:new    ;}
	.st4{opacity:0.8;fill:#F393B5;enable-background:new    ;}
	.st5{opacity:0.75;fill:#F393B5;enable-background:new    ;}
	.st6{opacity:0.41;fill:#F393B5;enable-background:new    ;}
	.st7{opacity:0.31;fill:#F393B5;enable-background:new    ;}
	.st8{opacity:0.27;fill:#F393B5;enable-background:new    ;}
	.st9{opacity:0.3;fill:#F393B5;enable-background:new    ;}
	.st10{fill:#0071BC;}
	.st11{enable-background:new    ;}
</style>
<g>
	<title>logo azul y rosa</title>
	<path class="st0" d="M100.9,8.4L100.9,8.4z"/>
	<circle class="st1" cx="124.4" cy="13.6" r="3.3"/>
	<circle class="st2" cx="116.8" cy="15.7" r="2.8"/>
	<circle class="st3" cx="113.1" cy="21.1" r="2.3"/>
	<circle class="st4" cx="113.1" cy="26.9" r="2"/>
	<circle class="st5" cx="115.9" cy="31.5" r="1.8"/>
	<circle class="st5" cx="120.3" cy="34.2" r="1.4"/>
	<circle class="st6" cx="124.9" cy="34.3" r="1.3"/>
	<circle class="st7" cx="128.5" cy="33" r="1.1"/>
	<circle class="st8" cx="131.1" cy="30.9" r="1"/>
	<ellipse class="st9" cx="132.6" cy="28.3" rx="0.8" ry="0.8"/>
	<ellipse class="st7" cx="133.3" cy="25.6" rx="0.8" ry="0.8"/>
</g>
<g>
	<g id="Capa_4">
		<path class="st10" d="M57.5,16.1c0,0.1-0.1,0.2-0.3,0.2h-4.1v17.5c0,0.1-0.1,0.2-0.3,0.2h-3.5c-0.2,0-0.3-0.1-0.3-0.2V16.3h-4.1
			c-0.2,0-0.3-0.1-0.3-0.2v-3.2c0-0.1,0.1-0.2,0.3-0.2h12.2c0.2,0,0.3,0.1,0.3,0.2L57.5,16.1L57.5,16.1z"/>
	</g>
</g>
<g id="Capa_6">
	<path class="st10" d="M140.1,28c0-0.1,0.1-0.2,0.3-0.2h3.5c0.2,0,0.3,0.1,0.3,0.2c0.1,1.6,1.3,2.4,2.7,2.4s2.7-0.9,2.7-2.4
		c0-1.6-1.5-2.6-2.7-2.7c-0.2,0-1.7,0-3.3-0.7c-2.3-1.1-3.6-3.2-3.6-5.7c0-4.1,3.3-6.6,6.8-6.6c3.8,0,6.7,2.5,6.7,6.2
		c0,0.1-0.1,0.2-0.3,0.2h-3.5c-0.2,0-0.3-0.1-0.3-0.2c-0.1-1.5-1.3-2.3-2.7-2.3c-1.5,0-2.7,0.9-2.7,2.7c0,1.6,1.3,2.6,2.7,2.6
		c0.2,0,1.7,0,3.2,0.7c2.3,1.1,3.6,3.3,3.6,5.8c0,4.2-3.3,6.4-6.8,6.4C143.1,34.3,140.1,32.1,140.1,28z"/>
</g>
<g id="Capa_11">
	<g id="Capa_5">
		<path class="st10" d="M104.9,23.2c0,5.5-3.6,11.1-10.6,11.1c-7.2,0-10.7-5.6-10.7-11.1s3.5-11.1,10.7-11.1
			C101.3,12.2,104.9,17.7,104.9,23.2z M100.7,23.3c0-3.6-2.2-7.2-6.5-7.2s-6.5,3.6-6.5,7.2s2.2,7.1,6.5,7.1
			C98.6,30.4,100.7,26.9,100.7,23.3z"/>
	</g>
</g>
<g id="Capa_10">
	<g class="st11">
		<path class="st10" d="M76,20c4.4,1.5,4.3,5.8,4.3,5.8c0,7.8-8,8.2-9.9,8.2h-9.1c-0.2,0-0.4-0.2-0.4-0.3V6.3C60.9,6.2,61,6,61.3,6
			h9.1c0,0,9.5-0.2,9.5,8C79.9,17.3,78.1,19.1,76,20z M66.2,17.4h4.2c0,0,4.1,0,4.1-3.1c0-3.4-4.1-3.3-4.1-3.3h-4.2V17.4z
			 M74.9,25.8c0-3.3-4.5-3.1-4.5-3.1h-4.2v6.2h4.2C72.2,28.9,74.9,28.4,74.9,25.8z"/>
	</g>
</g>
<g id="Capa_7">
	<path class="st10" d="M168.6,16.1c0,0.1-0.1,0.2-0.3,0.2h-4.1v17.5c0,0.1-0.1,0.2-0.3,0.2h-3.5c-0.2,0-0.3-0.1-0.3-0.2V16.3H156
		c-0.2,0-0.3-0.1-0.3-0.2v-3.2c0-0.1,0.1-0.2,0.3-0.2h12.2c0.2,0,0.3,0.1,0.3,0.2v3.2H168.6z"/>
</g>
<g id="Capa_9">
	<g id="Capa_3">
		<path class="st10" d="M39.8,28.4c0.1-0.1,0.3-0.1,0.4,0l2.4,2.5c0.1,0.1,0.1,0.3,0,0.4c-1.9,1.9-4.6,3.1-7.6,3.1
			c-5.9,0-10.8-4.3-10.8-11c0-6.4,4.5-11.2,10.8-11.2c3,0,5.7,1.2,7.6,3.1c0.1,0.1,0.1,0.3,0,0.4l-2.4,2.4c-0.1,0.1-0.3,0.1-0.4,0
			c-1.2-1.2-2.9-2-4.7-2c-4.1,0-6.6,3.2-6.6,7.2c0,4.3,3,7,6.6,7C36.9,30.4,38.6,29.6,39.8,28.4z"/>
	</g>
</g>
<g id="Capa_8">
	<g class="st11">
		<path class="st10" d="M15.9,30.9H6.8l-1.1,3C5.7,34,5.6,34,5.4,34H0.5c-0.3,0-0.5-0.2-0.4-0.4l11-28.2c0.1-0.3,0.6-0.3,0.7,0
			l10.9,28.2c0.1,0.2,0,0.4-0.3,0.4h-5c-0.1,0-0.3-0.1-0.3-0.2L15.9,30.9z M8.6,26.2h5.6l-2.8-8.4L8.6,26.2z"/>
	</g>
</g>
</svg>
