<svg id="Capa_1" data-name="Capa 1" xmlns="http://www.w3.org/2000/svg" viewBox="0 0 359.19 44.64"><defs><style>.cls-1,.cls-15{font-size:40.06px;font-family:BaronNeueBold, Baron Neue;}.cls-1,.cls-16,.cls-17,.cls-18,.cls-19,.cls-20,.cls-21,.cls-22,.cls-23,.cls-24{fill:#0071bc;}.cls-2,.cls-4{font-size:30.81px;}.cls-3{letter-spacing:0em;}.cls-4{letter-spacing:0em;}.cls-5{fill:none;}.cls-10,.cls-11,.cls-12,.cls-13,.cls-14,.cls-6,.cls-7,.cls-8,.cls-9{fill:#f393b5;}.cls-17,.cls-7{opacity:0.9;}.cls-18,.cls-8{opacity:0.85;}.cls-19,.cls-9{opacity:0.8;}.cls-10,.cls-20{opacity:0.75;}.cls-11,.cls-21{opacity:0.41;}.cls-12,.cls-22{opacity:0.31;}.cls-13,.cls-23{opacity:0.27;}.cls-14,.cls-24{opacity:0.3;}.cls-15{fill:#fff;}</style></defs><title>logo ActBoost</title><text class="cls-1" transform="translate(0 34.98)">A<tspan class="cls-2" x="22.83" y="0">ct</tspan><tspan class="cls-3" x="58.02" y="0">B</tspan><tspan class="cls-4" x="82.17" y="0" xml:space="preserve">o   st</tspan></text><path class="cls-5" d="M101.86,7.65h0Z" transform="translate(-1 1.67)"/><circle class="cls-6" cx="124.4" cy="14.58" r="3.28"/><circle class="cls-7" cx="116.81" cy="16.61" r="2.79"/><circle class="cls-8" cx="113.06" cy="22" r="2.32"/><circle class="cls-9" cx="113.06" cy="27.78" r="1.97"/><circle class="cls-10" cx="115.93" cy="32.47" r="1.77"/><circle class="cls-10" cx="120.31" cy="35.13" r="1.42"/><circle class="cls-11" cx="124.87" cy="35.24" r="1.3"/><circle class="cls-12" cx="128.52" cy="33.94" r="1.09"/><circle class="cls-13" cx="131.07" cy="31.79" r="0.98"/><ellipse class="cls-14" cx="133.58" cy="27.56" rx="0.76" ry="0.76" transform="translate(18.64 104.2) rotate(-45)"/><ellipse class="cls-12" cx="134.28" cy="24.87" rx="0.76" ry="0.76" transform="translate(20.75 103.9) rotate(-45)"/><text class="cls-15" transform="translate(190.04 34.05)">A<tspan class="cls-2" x="22.83" y="0">ct</tspan><tspan class="cls-3" x="58.02" y="0">B</tspan><tspan class="cls-4" x="82.17" y="0" xml:space="preserve">o   st</tspan></text><path class="cls-5" d="M291.9,6.72h0Z" transform="translate(-1 1.67)"/><circle class="cls-16" cx="314.44" cy="13.65" r="3.28"/><circle class="cls-17" cx="306.86" cy="15.68" r="2.79"/><circle class="cls-18" cx="303.1" cy="21.06" r="2.32"/><circle class="cls-19" cx="303.1" cy="26.85" r="1.97"/><circle class="cls-20" cx="305.97" cy="31.54" r="1.77"/><circle class="cls-20" cx="310.35" cy="34.19" r="1.42"/><circle class="cls-21" cx="314.92" cy="34.31" r="1.3"/><circle class="cls-22" cx="318.56" cy="33" r="1.09"/><circle class="cls-23" cx="321.11" cy="30.86" r="0.98"/><ellipse class="cls-24" cx="323.62" cy="26.62" rx="0.76" ry="0.76" transform="translate(74.96 238.3) rotate(-45)"/><ellipse class="cls-22" cx="324.32" cy="23.93" rx="0.76" ry="0.76" transform="translate(77.07 238.01) rotate(-45)"/></svg>